Coordinates
version=1
nRows=21
nColumns=22
inDegrees=yes

Units are S.I. units (second, meters, Newtons, ...)
If the header above contains a line with 'inDegrees', this indicates whether rotational values are in degrees (yes) or radians (no).

endheader
time	pelvis_tilt	pelvis_list	pelvis_rotation	pelvis_tx	pelvis_ty	pelvis_tz	hip_flexion_r	hip_adduction_r	hip_rotation_r	knee_angle_r	ankle_angle_r	subtalar_angle_r	hip_flexion_l	hip_adduction_l	hip_rotation_l	knee_angle_l	ankle_angle_l	subtalar_angle_l	lumbar_extension	lumbar_bending	lumbar_rotation
      2.49000000	      5.11825072	      1.77040092	    -43.15970573	     -0.01619814	      1.07432461	     -0.33629870	     22.79343266	     -2.15451704	     -4.63931165	    -44.90977046	     11.73166025	     -0.46559681	     -3.30113977	      5.01613891	     -0.12244337	    -11.77647763	     13.73987322	      0.54192229	     -7.82446997	     -6.40228469	     -8.43319626
      2.50000000	      5.12862885	      1.70355816	    -43.34034931	     -0.01001842	      1.07375366	     -0.33183943	     22.99139205	     -2.27131609	     -6.01707131	    -43.11786746	     11.80268295	     -0.69039389	     -3.99717100	      5.05580699	     -0.24843737	    -11.42757583	     13.98277503	      0.42470985	     -7.83823673	     -6.34879595	     -8.66803264
      2.51000000	      5.13060438	      1.62855367	    -43.51436700	     -0.00386882	      1.07309690	     -0.32726586	     23.12138838	     -2.35548080	     -7.43373207	    -41.24898697	     11.82680946	     -0.94964535	     -4.67181869	      5.07946472	     -0.37453663	    -11.12128586	     14.24443569	      0.30654391	     -7.84544668	     -6.27871942	     -8.90631745
      2.52000000	      5.11942595	      1.54416876	    -43.67458927	      0.00224846	      1.07235517	     -0.32258984	     23.18906938	     -2.40019829	     -8.89028202	    -39.30964777	     11.81347802	     -1.23573851	     -5.31118299	      5.08011050	     -0.50904859	    -10.87808712	     14.52026777	      0.20189435	     -7.84653413	     -6.18756240	     -9.14611189
      2.53000000	      5.07695916	      1.46949012	    -43.81493696	      0.00831880	      1.07149270	     -0.31783780	     23.23579110	     -2.40523007	    -10.38247343	    -37.31784576	     11.72477121	     -1.49615020	     -5.88291802	      5.06039574	     -0.60807558	    -10.70765627	     14.85911394	      0.12153973	     -7.81806783	     -6.08198969	     -9.35955120
      2.54000000	      5.01313848	      1.38512417	    -43.94024067	      0.01433816	      1.07055228	     -0.31299252	     23.23786873	     -2.35141996	    -11.88219144	    -35.27089481	     11.60271737	     -1.76452887	     -6.40832769	      5.00974486	     -0.71645406	    -10.60906088	     15.22240971	      0.06270403	     -7.78443564	     -5.95220472	     -9.56895851
      2.55000000	      4.92796690	      1.29055965	    -44.05320714	      0.02029161	      1.06954657	     -0.30805930	     23.19971059	     -2.23150426	    -13.36264014	    -33.17212196	     11.45163476	     -2.04004624	     -6.88559088	      4.92692888	     -0.84234761	    -10.58465834	     15.60061925	      0.02902070	     -7.75055516	     -5.79657535	     -9.77295070
      2.56000000	      4.80905921	      1.19638387	    -44.15421989	      0.02615811	      1.06845424	     -0.30304826	     23.15048104	     -2.04182741	    -14.80214882	    -31.04025088	     11.27036363	     -2.28522889	     -7.29614813	      4.81256629	     -0.95832765	    -10.63793513	     16.01666167	      0.01501077	     -7.70033627	     -5.62134497	     -9.94528867
      2.57000000	      4.65333706	      1.10457121	    -44.24710644	      0.03194721	      1.06727665	     -0.29795793	     23.09971258	     -1.77947530	    -16.17099108	    -28.88588883	     11.06393855	     -2.48859774	     -7.64274567	      4.66689101	     -1.06795752	    -10.75716325	     16.48561660	      0.00880908	     -7.62791654	     -5.41988218	    -10.09233562
      2.58000000	      4.48241797	      0.98505300	    -44.33612928	      0.03765495	      1.06609563	     -0.29275431	     22.99912377	     -1.43148284	    -17.44012843	    -26.69699671	     10.88558380	     -2.68835955	     -7.96275633	      4.47893237	     -1.22708018	    -10.94357948	     16.90537239	      0.03290754	     -7.57400413	     -5.18711222	    -10.22912056
      2.59000000	      4.27694712	      0.86324641	    -44.41846953	      0.04327930	      1.06485737	     -0.28746724	     22.89326061	     -1.00630229	    -18.56503081	    -24.49838278	     10.72010740	     -2.82550721	     -8.22199280	      4.25692515	     -1.38425259	    -11.20062150	     17.34435312	      0.06529959	     -7.50405011	     -4.92634256	    -10.34355146
      2.60000000	      4.04278355	      0.74082386	    -44.50161578	      0.04884148	      1.06357643	     -0.28207361	     22.78352696	     -0.51728475	    -19.52918228	    -22.31619902	     10.58108085	     -2.89062030	     -8.43449484	      4.00728847	     -1.55854224	    -11.50933842	     17.78687706	      0.10468881	     -7.41504930	     -4.64510450	    -10.43828953
      2.61000000	      3.78302416	      0.61329800	    -44.57806091	      0.05437713	      1.06226798	     -0.27657073	     22.66066438	      0.02524739	    -20.31788138	    -20.16879875	     10.49134737	     -2.87823398	     -8.60758785	      3.72782652	     -1.74357569	    -11.87000978	     18.21551399	      0.15287016	     -7.30941172	     -4.33569958	    -10.52050396
      2.62000000	      3.50341835	      0.48327301	    -44.64394535	      0.05991682	      1.06094277	     -0.27096291	     22.52343819	      0.60035828	    -20.91312895	    -18.08752377	     10.45537724	     -2.78637968	     -8.75091759	      3.42542231	     -1.92721059	    -12.27066297	     18.62277991	      0.21119624	     -7.18798662	     -4.00429311	    -10.59501826
      2.63000000	      3.18904157	      0.39096777	    -44.69523051	      0.06546258	      1.05953701	     -0.26527653	     22.42610965	      1.16993264	    -21.30964249	    -16.12570064	     10.45065928	     -2.66143227	     -8.80624936	      3.11844608	     -2.10703863	    -12.74144028	     19.01099795	      0.22059588	     -7.00530102	     -3.67262202	    -10.66330322
      2.64000000	      2.93257743	      0.22274399	    -44.70368088	      0.07115131	      1.05830171	     -0.25946618	     22.18730387	      1.72288630	    -21.56756066	    -14.29038933	     10.50857121	     -2.44703419	     -8.97945208	      2.78694018	     -2.25738044	    -13.19573604	     19.36539340	      0.34167523	     -6.91908272	     -3.30731427	    -10.79867344
      2.65000000	      2.63253659	      0.12926624	    -44.69433000	      0.07692592	      1.05694584	     -0.25358284	     22.04544712	      2.20690090	    -21.66530733	    -12.69461527	     10.56038352	     -2.31615543	     -9.04487514	      2.47861670	     -2.34875192	    -13.69813330	     19.67828679	      0.37280689	     -6.72291030	     -2.96124418	    -10.91002951
      2.66000000	      2.43316902	     -0.05047126	    -44.63055527	      0.08289200	      1.05581960	     -0.24758585	     21.75800732	      2.60398082	    -21.75172161	    -11.36737465	     10.66683652	     -2.15769063	     -9.26573855	      2.16675760	     -2.41141875	    -14.18799365	     19.93003872	      0.55186089	     -6.66657166	     -2.60953502	    -11.10207949
      2.67000000	      2.20658823	     -0.14489694	    -44.54523867	      0.08902464	      1.05459596	     -0.24149165	     21.59433945	      2.87784232	    -21.78625350	    -10.40959459	     10.74197547	     -2.14123938	     -9.40511813	      1.90147553	     -2.38624654	    -14.68950620	     20.13100489	      0.61653766	     -6.49155958	     -2.29416120	    -11.29940765
      2.68000000	      2.05450335	     -0.30476015	    -44.39979605	      0.09538030	      1.05356364	     -0.23529199	     21.36749474	      3.04098117	    -21.96111392	     -9.85584275	     10.83573392	     -2.21716550	     -9.64951371	      1.62887745	     -2.30232591	    -15.20861148	     20.25811745	      0.78002628	     -6.41214686	     -1.96897542	    -11.55296855
      2.69000000	      1.95841557	     -0.46709088	    -44.22835169	      0.10192813	      1.05264064	     -0.22894966	     21.16143357	      3.07093844	    -22.25740254	     -9.75182685	     10.92613134	     -2.40559304	     -9.95735190	      1.39230288	     -2.14150530	    -15.71025994	     20.29624795	      0.98594901	     -6.35382033	     -1.67598729	    -11.84558983
